<svg xmlns="http://www.w3.org/2000/svg" viewBox="0 0 64 64">
  <path d="M 28 10 C 28 4 36 4 36 10 L 36 50 C 36 54 28 54 28 50 Z" fill="#E2E8F0" />
  <polygon points="28,24 6,38 6,44 28,34" fill="#FFFFFF" />
  <polygon points="36,24 58,38 58,44 36,34" fill="#FFFFFF" />
  <polygon points="28,48 16,54 16,56 28,52" fill="#FFFFFF" />
  <polygon points="36,48 48,54 48,56 36,52" fill="#FFFFFF" />
  <rect x="18" y="36" width="4" height="8" rx="2" fill="#94A3B8" />
  <rect x="42" y="36" width="4" height="8" rx="2" fill="#94A3B8" />
  <rect x="30" y="12" width="4" height="4" rx="1" fill="#94A3B8" />
  <rect x="31" y="52" width="2" height="10" fill="#94A3B8" />
  <polygon points="29,60 35,60 35,62 29,62" fill="#FFFFFF" />
</svg>
