<svg xmlns="http://www.w3.org/2000/svg" viewBox="0 0 64 64">
  <circle cx="16" cy="46" r="6" fill="#94A3B8" />
  <circle cx="16" cy="46" r="3" fill="#FFFFFF" />
  <circle cx="48" cy="46" r="6" fill="#94A3B8" />
  <circle cx="48" cy="46" r="3" fill="#FFFFFF" />
  <rect x="10" y="38" width="44" height="6" rx="1" fill="#FFFFFF" />
  <rect x="42" y="24" width="12" height="14" rx="2" fill="#E2E8F0" />
  <rect x="46" y="26" width="6" height="6" rx="1" fill="#94A3B8" />
  <rect x="20" y="24" width="10" height="14" fill="#94A3B8" />
  <polygon points="12,24 16,18 34,18 38,24" fill="#FFFFFF" />
  <path d="M 25 18 C 25 12 25 6 16 6 L 14 8 C 20 12 20 16 23 18 Z" fill="#E2E8F0" />
  <circle cx="14" cy="7" r="3" fill="#FFFFFF" />
  <path d="M 30 14 A 8 8 0 0 1 40 8" fill="none" stroke="#FFFFFF" stroke-width="2" />
  <path d="M 33 16 A 12 12 0 0 1 46 8" fill="none" stroke="#FFFFFF" stroke-width="2" />
</svg>
