<svg xmlns="http://www.w3.org/2000/svg" viewBox="0 0 64 64">
  <circle cx="12" cy="46" r="6" fill="#94A3B8" />
  <circle cx="12" cy="46" r="3" fill="#FFFFFF" />
  <circle cx="28" cy="46" r="6" fill="#94A3B8" />
  <circle cx="28" cy="46" r="3" fill="#FFFFFF" />
  <circle cx="44" cy="46" r="6" fill="#94A3B8" />
  <circle cx="44" cy="46" r="3" fill="#FFFFFF" />
  <circle cx="56" cy="46" r="6" fill="#94A3B8" />
  <circle cx="56" cy="46" r="3" fill="#FFFFFF" />
  <rect x="6" y="36" width="54" height="8" rx="2" fill="#FFFFFF" />
  <rect x="46" y="26" width="14" height="10" rx="2" fill="#E2E8F0" />
  <polygon points="20,38 48,16 54,24 26,46" fill="#FFFFFF" />
  <polygon points="46,14 48,12 52,14 50,16" fill="#94A3B8" />
  <polygon points="50,18 52,16 56,18 54,20" fill="#94A3B8" />
  <line x1="26" y1="36" x2="46" y2="20" stroke="#94A3B8" stroke-width="2" />
</svg>
