<svg xmlns="http://www.w3.org/2000/svg" viewBox="0 0 64 64">
  <rect x="12" y="28" width="40" height="16" rx="8" fill="#FFFFFF" />
  <path d="M 46 30 L 56 18 L 60 18 L 54 30 Z" fill="#E2E8F0" />
  <path d="M 16 28 L 20 18 L 24 18 L 22 28 Z" fill="#E2E8F0" />
  <rect x="4" y="16" width="30" height="3" fill="#94A3B8" />
  <rect x="32" y="14" width="30" height="3" fill="#94A3B8" />
  <rect x="18" y="32" width="6" height="6" rx="1" fill="#94A3B8" />
  <rect x="26" y="32" width="4" height="4" rx="1" fill="#94A3B8" />
  <rect x="32" y="32" width="4" height="4" rx="1" fill="#94A3B8" />
  <rect x="38" y="32" width="4" height="4" rx="1" fill="#94A3B8" />
  <circle cx="20" cy="46" r="3" fill="#94A3B8" />
  <circle cx="44" cy="46" r="3" fill="#94A3B8" />
  <rect x="18" y="44" width="4" height="2" fill="#94A3B8" />
  <rect x="42" y="44" width="4" height="2" fill="#94A3B8" />
</svg>
