<svg xmlns="http://www.w3.org/2000/svg" viewBox="0 0 64 64">
  <circle cx="12" cy="46" r="6" fill="#94A3B8" />
  <circle cx="12" cy="46" r="3" fill="#FFFFFF" />
  <circle cx="28" cy="46" r="6" fill="#94A3B8" />
  <circle cx="28" cy="46" r="3" fill="#FFFFFF" />
  <circle cx="50" cy="46" r="6" fill="#94A3B8" />
  <circle cx="50" cy="46" r="3" fill="#FFFFFF" />
  <rect x="6" y="38" width="52" height="6" rx="1" fill="#94A3B8" />
  <rect x="46" y="24" width="12" height="14" rx="2" fill="#FFFFFF" />
  <rect x="50" y="26" width="6" height="6" rx="1" fill="#94A3B8" />
  <path d="M 6 38 L 6 18 C 6 12 12 12 24 12 L 44 12 C 46 12 46 16 46 20 L 46 38 Z" fill="#E2E8F0" />
  <line x1="16" y1="13" x2="16" y2="38" stroke="#FFFFFF" stroke-width="2" />
  <line x1="26" y1="12" x2="26" y2="38" stroke="#FFFFFF" stroke-width="2" />
  <line x1="36" y1="12" x2="36" y2="38" stroke="#FFFFFF" stroke-width="2" />
</svg>
